<svg width="24" height="24" viewBox="0 0 24 24" fill="none" xmlns="http://www.w3.org/2000/svg">
<mask id="path-1-inside-1_4_784" fill="white">
<path d="M11.5 3.5C11.5 3.22386 11.7241 2.99863 11.9998 3.01315C14.0192 3.1195 15.9569 3.86806 17.5267 5.1564C19.2257 6.55072 20.3887 8.491 20.8175 10.6466C21.2462 12.8023 20.9143 15.0399 19.8783 16.9783C18.8422 18.9166 17.1661 20.4358 15.1355 21.2769C13.1049 22.1179 10.8455 22.2289 8.74229 21.5909C6.63906 20.9529 4.82211 19.6054 3.60104 17.7779C2.37996 15.9504 1.83032 13.7561 2.04575 11.5688C2.2448 9.54779 3.08567 7.64829 4.43836 6.14521C4.62308 5.93995 4.94078 5.94077 5.13604 6.13604L10.6464 11.6464C10.9614 11.9614 11.5 11.7383 11.5 11.2929V3.5Z"/>
</mask>
<path d="M11.5 3.5C11.5 3.22386 11.7241 2.99863 11.9998 3.01315C14.0192 3.1195 15.9569 3.86806 17.5267 5.1564C19.2257 6.55072 20.3887 8.491 20.8175 10.6466C21.2462 12.8023 20.9143 15.0399 19.8783 16.9783C18.8422 18.9166 17.1661 20.4358 15.1355 21.2769C13.1049 22.1179 10.8455 22.2289 8.74229 21.5909C6.63906 20.9529 4.82211 19.6054 3.60104 17.7779C2.37996 15.9504 1.83032 13.7561 2.04575 11.5688C2.2448 9.54779 3.08567 7.64829 4.43836 6.14521C4.62308 5.93995 4.94078 5.94077 5.13604 6.13604L10.6464 11.6464C10.9614 11.9614 11.5 11.7383 11.5 11.2929V3.5Z" stroke="white" stroke-width="4" mask="url(#path-1-inside-1_4_784)"/>
</svg>
