<svg width="24" height="24" viewBox="0 0 24 24" fill="none" xmlns="http://www.w3.org/2000/svg">
<path d="M17 13.4999C20.6884 13.4999 23.9 14.8091 23.9 17.7571C23.9 19.3111 23.2563 19.9999 21.9412 19.9999L16.3453 19.9999C15.8021 19.9999 15.4183 19.449 15.5256 18.9165C15.6009 18.5429 15.9145 18.2 16.2956 18.2C18.5549 18.2003 22.078 18.202 22.078 18.202C22.078 18.202 22.1 17.9051 22.1 17.7571C22.1 16.2448 19.7821 15.2999 17 15.2999C16.5279 15.2999 16.0692 15.3271 15.6329 15.3797C15.2977 15.4201 14.9732 15.2607 14.7833 14.9816C14.4323 14.4658 14.6172 13.6855 15.2361 13.607C15.8031 13.5351 16.3951 13.4999 17 13.4999ZM6.99998 13.4999C10.6884 13.4999 13.9 14.8091 13.9 17.7571C13.9 19.3111 13.2563 19.9999 11.9412 19.9999H2.0588C0.743685 19.9999 0.0999756 19.3111 0.0999756 17.7571C0.0999756 14.8091 3.31153 13.4999 6.99998 13.4999ZM6.99998 15.2999C4.21784 15.2999 1.89998 16.2448 1.89998 17.7571C1.89998 17.9059 1.91998 18.202 1.91998 18.202H12.078C12.078 18.202 12.1 17.9051 12.1 17.7571C12.1 16.2448 9.78211 15.2999 6.99998 15.2999ZM17 4.19995C19.2927 4.19995 21.15 6.05727 21.15 8.34995C21.15 10.6426 19.2927 12.5 17 12.5C14.7073 12.5 12.85 10.6426 12.85 8.34995C12.85 6.05727 14.7073 4.19995 17 4.19995ZM6.99998 4.19995C9.29266 4.19995 11.15 6.05727 11.15 8.34995C11.15 10.6426 9.29266 12.5 6.99998 12.5C4.70729 12.5 2.84998 10.6426 2.84998 8.34995C2.84998 6.05727 4.70729 4.19995 6.99998 4.19995ZM17 5.99995C15.7014 5.99995 14.65 7.05138 14.65 8.34995C14.65 9.64852 15.7014 10.7 17 10.7C18.2985 10.7 19.35 9.64852 19.35 8.34995C19.35 7.05138 18.2985 5.99995 17 5.99995ZM6.99998 5.99995C5.70141 5.99995 4.64998 7.05138 4.64998 8.34995C4.64998 9.64852 5.70141 10.7 6.99998 10.7C8.29854 10.7 9.34998 9.64852 9.34998 8.34995C9.34998 7.05138 8.29854 5.99995 6.99998 5.99995Z" fill="white"/>
</svg>
