<svg width="20" height="20" viewBox="0 0 20 20" fill="none" xmlns="http://www.w3.org/2000/svg">
<path fill-rule="evenodd" clip-rule="evenodd" d="M11.6534 2.11829C11.7259 2.25913 11.7442 2.43996 11.78 2.80163C11.8484 3.48496 11.8825 3.82663 12.0259 4.01496C12.1152 4.13189 12.2338 4.2231 12.3698 4.27931C12.5058 4.33551 12.6542 4.35471 12.8 4.33496C13.0334 4.30413 13.3 4.08663 13.8317 3.65163C14.1125 3.42079 14.2534 3.30579 14.4042 3.25746C14.5963 3.19607 14.8041 3.20644 14.9892 3.28663C15.135 3.34996 15.2642 3.47829 15.52 3.73496L16.265 4.47996C16.5217 4.73663 16.65 4.86496 16.7134 5.01079C16.7936 5.19584 16.8039 5.40369 16.7425 5.59579C16.6942 5.74663 16.5792 5.88746 16.3492 6.16829C15.9134 6.70079 15.6959 6.96663 15.6642 7.20079C15.6447 7.34654 15.6641 7.49485 15.7204 7.63068C15.7768 7.7665 15.8681 7.88499 15.985 7.97413C16.1725 8.11746 16.515 8.15163 17.1992 8.21996C17.56 8.25579 17.7409 8.27413 17.8825 8.34663C18.0612 8.43929 18.2004 8.59351 18.2742 8.78079C18.3334 8.92829 18.3334 9.10996 18.3334 9.47329V10.5266C18.3334 10.89 18.3334 11.0716 18.275 11.2183C18.201 11.4062 18.0612 11.5607 17.8817 11.6533C17.7409 11.7258 17.56 11.7441 17.1984 11.78C16.515 11.8483 16.1734 11.8825 15.985 12.0258C15.8681 12.1151 15.7769 12.2338 15.7207 12.3697C15.6645 12.5057 15.6453 12.6542 15.665 12.8C15.6967 13.0333 15.9142 13.3 16.3492 13.8316C16.5792 14.1125 16.6942 14.2525 16.7425 14.4041C16.8039 14.5962 16.7936 14.8041 16.7134 14.9891C16.65 15.135 16.5217 15.2633 16.265 15.52L15.52 16.2641C15.2634 16.5216 15.135 16.65 14.9892 16.7125C14.8041 16.7927 14.5963 16.803 14.4042 16.7416C14.2534 16.6933 14.1125 16.5783 13.8317 16.3483C13.2992 15.9133 13.0334 15.6958 12.8 15.665C12.6542 15.6452 12.5058 15.6644 12.3698 15.7206C12.2338 15.7768 12.1152 15.868 12.0259 15.985C11.8825 16.1725 11.8484 16.5141 11.78 17.1983C11.7442 17.56 11.7259 17.7408 11.6534 17.8816C11.561 18.061 11.4068 18.2007 11.2192 18.275C11.0717 18.3333 10.89 18.3333 10.5267 18.3333H9.47336C9.11003 18.3333 8.92836 18.3333 8.78169 18.275C8.59383 18.2009 8.43925 18.0611 8.34669 17.8816C8.27419 17.7408 8.25586 17.56 8.22003 17.1983C8.1517 16.515 8.11753 16.1733 7.9742 15.985C7.88497 15.8682 7.76643 15.777 7.63061 15.7208C7.4948 15.6646 7.34653 15.6454 7.20086 15.665C6.96669 15.6958 6.70086 15.9133 6.16836 16.3483C5.88753 16.5791 5.7467 16.6941 5.59586 16.7425C5.40376 16.8038 5.19591 16.7935 5.01086 16.7133C4.86503 16.65 4.73586 16.5216 4.48003 16.265L3.73503 15.52C3.47836 15.2633 3.35003 15.135 3.28669 14.9891C3.20651 14.8041 3.19614 14.5962 3.25753 14.4041C3.30586 14.2533 3.42086 14.1125 3.65086 13.8316C4.08669 13.2991 4.30419 13.0333 4.33503 12.7991C4.35463 12.6535 4.33535 12.5052 4.27915 12.3694C4.22295 12.2336 4.13183 12.115 4.01503 12.0258C3.82753 11.8825 3.48503 11.8483 2.80086 11.78C2.44003 11.7441 2.25919 11.7258 2.11753 11.6533C1.93882 11.5606 1.79969 11.4064 1.72586 11.2191C1.66669 11.0716 1.66669 10.89 1.66669 10.5266V9.47329C1.66669 9.10996 1.66669 8.92829 1.72503 8.78163C1.7991 8.59376 1.93887 8.43918 2.11836 8.34663C2.25919 8.27413 2.44003 8.25579 2.80169 8.21996C3.48503 8.15163 3.82753 8.11746 4.01503 7.97413C4.13198 7.88499 4.22327 7.7665 4.27961 7.63068C4.33596 7.49485 4.35537 7.34654 4.33586 7.20079C4.30419 6.96663 4.08586 6.70079 3.65086 6.16746C3.42086 5.88663 3.30586 5.74663 3.25753 5.59496C3.19614 5.40285 3.20651 5.19501 3.28669 5.00996C3.35003 4.86496 3.47836 4.73579 3.73503 4.47913L4.48003 3.73496C4.73669 3.47829 4.86503 3.34913 5.01086 3.28663C5.19591 3.20644 5.40376 3.19607 5.59586 3.25746C5.7467 3.30579 5.88753 3.42079 6.16836 3.65079C6.70086 4.08579 6.9667 4.30329 7.20003 4.33496C7.34604 4.35477 7.49469 4.33552 7.63084 4.27916C7.76698 4.2228 7.88575 4.13135 7.97503 4.01413C8.11669 3.82663 8.1517 3.48496 8.22003 2.80079C8.25586 2.43996 8.27419 2.25913 8.34669 2.11746C8.4392 1.93844 8.59344 1.799 8.78086 1.72496C8.92836 1.66663 9.11003 1.66663 9.47336 1.66663H10.5267C10.89 1.66663 11.0717 1.66663 11.2184 1.72496C11.4062 1.79903 11.5608 1.93881 11.6534 2.11829ZM10 13.3333C10.8841 13.3333 11.7319 12.9821 12.3571 12.357C12.9822 11.7319 13.3334 10.884 13.3334 9.99996C13.3334 9.1159 12.9822 8.26806 12.3571 7.64294C11.7319 7.01782 10.8841 6.66663 10 6.66663C9.11597 6.66663 8.26813 7.01782 7.64301 7.64294C7.01788 8.26806 6.6667 9.1159 6.66669 9.99996C6.6667 10.884 7.01788 11.7319 7.64301 12.357C8.26813 12.9821 9.11597 13.3333 10 13.3333Z" fill="#E13A92"/>
</svg>
