<svg width="45" height="45" viewBox="0 0 45 45" fill="none" xmlns="http://www.w3.org/2000/svg">
<path d="M3.86719 16.875V29.5312C3.86719 29.9975 4.05239 30.4446 4.38204 30.7742C4.71169 31.1039 5.1588 31.2891 5.625 31.2891H19.6875C19.9672 31.2891 20.2355 31.4002 20.4333 31.598C20.6311 31.7958 20.7422 32.064 20.7422 32.3438C20.7422 32.6235 20.6311 32.8917 20.4333 33.0895C20.2355 33.2873 19.9672 33.3984 19.6875 33.3984H16.5234V36.9141H19.6875C19.9672 36.9141 20.2355 37.0252 20.4333 37.223C20.6311 37.4208 20.7422 37.689 20.7422 37.9688C20.7422 38.2485 20.6311 38.5167 20.4333 38.7145C20.2355 38.9123 19.9672 39.0234 19.6875 39.0234H11.25C10.9703 39.0234 10.702 38.9123 10.5042 38.7145C10.3064 38.5167 10.1953 38.2485 10.1953 37.9688C10.1953 37.689 10.3064 37.4208 10.5042 37.223C10.702 37.0252 10.9703 36.9141 11.25 36.9141H14.4141V33.3984H5.625C4.59936 33.3984 3.61572 32.991 2.89049 32.2658C2.16525 31.5405 1.75781 30.5569 1.75781 29.5312V16.875C1.75781 15.8494 2.16525 14.8657 2.89049 14.1405C3.61572 13.4152 4.59936 13.0078 5.625 13.0078H19.6875C19.9672 13.0078 20.2355 13.1189 20.4333 13.3167C20.6311 13.5145 20.7422 13.7828 20.7422 14.0625C20.7422 14.3422 20.6311 14.6105 20.4333 14.8083C20.2355 15.0061 19.9672 15.1172 19.6875 15.1172H5.625C5.1588 15.1172 4.71169 15.3024 4.38204 15.632C4.05239 15.9617 3.86719 16.4088 3.86719 16.875ZM36.5625 11.6016H30.9375C30.6578 11.6016 30.3895 11.7127 30.1917 11.9105C29.9939 12.1083 29.8828 12.3765 29.8828 12.6562C29.8828 12.936 29.9939 13.2042 30.1917 13.402C30.3895 13.5998 30.6578 13.7109 30.9375 13.7109H36.5625C36.8422 13.7109 37.1105 13.5998 37.3083 13.402C37.5061 13.2042 37.6172 12.936 37.6172 12.6562C37.6172 12.3765 37.5061 12.1083 37.3083 11.9105C37.1105 11.7127 36.8422 11.6016 36.5625 11.6016ZM36.5625 17.2266H30.9375C30.6578 17.2266 30.3895 17.3377 30.1917 17.5355C29.9939 17.7333 29.8828 18.0015 29.8828 18.2812C29.8828 18.561 29.9939 18.8292 30.1917 19.027C30.3895 19.2248 30.6578 19.3359 30.9375 19.3359H36.5625C36.8422 19.3359 37.1105 19.2248 37.3083 19.027C37.5061 18.8292 37.6172 18.561 37.6172 18.2812C37.6172 18.0015 37.5061 17.7333 37.3083 17.5355C37.1105 17.3377 36.8422 17.2266 36.5625 17.2266ZM43.2422 8.4375V36.5625C43.2422 37.2152 42.9829 37.8411 42.5214 38.3026C42.0599 38.7642 41.4339 39.0234 40.7812 39.0234H26.7188C26.0661 39.0234 25.4401 38.7642 24.9786 38.3026C24.5171 37.8411 24.2578 37.2152 24.2578 36.5625V8.4375C24.2578 7.78482 24.5171 7.15887 24.9786 6.69735C25.4401 6.23584 26.0661 5.97656 26.7188 5.97656H40.7812C41.4339 5.97656 42.0599 6.23584 42.5214 6.69735C42.9829 7.15887 43.2422 7.78482 43.2422 8.4375ZM41.1328 8.4375C41.1328 8.34426 41.0958 8.25484 41.0298 8.18891C40.9639 8.12298 40.8745 8.08594 40.7812 8.08594H26.7188C26.6255 8.08594 26.5361 8.12298 26.4702 8.18891C26.4042 8.25484 26.3672 8.34426 26.3672 8.4375V36.5625C26.3672 36.6557 26.4042 36.7452 26.4702 36.8111C26.5361 36.877 26.6255 36.9141 26.7188 36.9141H40.7812C40.8745 36.9141 40.9639 36.877 41.0298 36.8111C41.0958 36.7452 41.1328 36.6557 41.1328 36.5625V8.4375ZM33.75 29.8828C33.4023 29.8828 33.0625 29.9859 32.7734 30.1791C32.4843 30.3722 32.259 30.6467 32.126 30.9679C31.9929 31.2891 31.9581 31.6426 32.026 31.9836C32.0938 32.3245 32.2612 32.6378 32.507 32.8836C32.7529 33.1294 33.0661 33.2968 33.4071 33.3647C33.7481 33.4325 34.1015 33.3977 34.4227 33.2646C34.7439 33.1316 35.0184 32.9063 35.2116 32.6172C35.4047 32.3281 35.5078 31.9883 35.5078 31.6406C35.5078 31.1744 35.3226 30.7273 34.993 30.3977C34.6633 30.068 34.2162 29.8828 33.75 29.8828Z" fill="#1A1C2B"/>
</svg>
