<svg width="20" height="20" viewBox="0 0 20 20" fill="none" xmlns="http://www.w3.org/2000/svg">
<path fill-rule="evenodd" clip-rule="evenodd" d="M4.16604 4.16637C5.65818 2.67423 7.7217 1.75 9.99967 1.75C12.2776 1.75 14.3412 2.67423 15.8333 4.16637C17.3254 5.6585 18.2497 7.72203 18.2497 10C18.2497 12.278 17.3254 14.3415 15.8333 15.8336C14.3412 17.3258 12.2776 18.25 9.99967 18.25C7.7217 18.25 5.65818 17.3258 4.16604 15.8336C2.67391 14.3415 1.74967 12.278 1.74967 10C1.74967 7.72203 2.67391 5.6585 4.16604 4.16637ZM9.99967 3.25C8.1355 3.25 6.44903 4.0047 5.2267 5.22703C4.00437 6.44936 3.24967 8.13583 3.24967 10C3.24967 11.8642 4.00437 13.5506 5.2267 14.773C6.44903 15.9953 8.1355 16.75 9.99967 16.75C11.8638 16.75 13.5503 15.9953 14.7726 14.773C15.995 13.5506 16.7497 11.8642 16.7497 10C16.7497 8.13583 15.995 6.44936 14.7726 5.22703C13.5503 4.0047 11.8638 3.25 9.99967 3.25Z" fill="#E13A92"/>
<path fill-rule="evenodd" clip-rule="evenodd" d="M6.52306 6.52339C7.41198 5.63447 8.64218 5.08333 9.99967 5.08333C11.3572 5.08333 12.5874 5.63447 13.4763 6.52339C14.3652 7.41231 14.9163 8.64251 14.9163 10C14.9163 11.3575 14.3652 12.5877 13.4763 13.4766C12.5874 14.3655 11.3572 14.9167 9.99967 14.9167C8.64218 14.9167 7.41198 14.3655 6.52306 13.4766C5.63414 12.5877 5.08301 11.3575 5.08301 10C5.08301 8.64251 5.63414 7.41231 6.52306 6.52339ZM9.99967 6.58333C9.05598 6.58333 8.20284 6.96494 7.58372 7.58405C6.96461 8.20317 6.58301 9.05631 6.58301 10C6.58301 10.9437 6.96461 11.7968 7.58372 12.4159C8.20284 13.0351 9.05598 13.4167 9.99967 13.4167C10.9434 13.4167 11.7965 13.0351 12.4156 12.4159C13.0347 11.7968 13.4163 10.9437 13.4163 10C13.4163 9.05631 13.0347 8.20317 12.4156 7.58405C11.7965 6.96494 10.9434 6.58333 9.99967 6.58333Z" fill="#E13A92"/>
<path fill-rule="evenodd" clip-rule="evenodd" d="M11.1193 8.88041C10.8336 8.59471 10.4367 8.41667 9.99967 8.41667C9.56265 8.41667 9.16579 8.59471 8.88009 8.88041C8.59438 9.16612 8.41634 9.56298 8.41634 10C8.41634 10.437 8.59438 10.8339 8.88009 11.1196C9.16579 11.4053 9.56265 11.5833 9.99967 11.5833C10.4367 11.5833 10.8336 11.4053 11.1193 11.1196C11.405 10.8339 11.583 10.437 11.583 10C11.583 9.56298 11.405 9.16612 11.1193 8.88041Z" fill="#E13A92"/>
</svg>
