<svg width="16" height="16" viewBox="0 0 16 16" fill="none" xmlns="http://www.w3.org/2000/svg">
<path d="M7.99999 13.4036C10.9843 13.4036 13.4035 10.9843 13.4035 8.00004C13.4035 5.01577 10.9843 2.59653 7.99999 2.59653C5.01572 2.59653 2.59649 5.01577 2.59649 8.00004C2.59649 10.9843 5.01572 13.4036 7.99999 13.4036ZM7.99999 14.6667C4.3181 14.6667 1.33333 11.6819 1.33333 8.00004C1.33333 4.31814 4.3181 1.33337 7.99999 1.33337C11.6819 1.33337 14.6667 4.31814 14.6667 8.00004C14.6667 11.6819 11.6819 14.6667 7.99999 14.6667ZM7.99999 6.41852C7.51553 6.41852 7.1228 6.02579 7.1228 5.54133C7.1228 5.05687 7.51553 4.66414 7.99999 4.66414C8.48446 4.66414 8.87719 5.05687 8.87719 5.54133C8.87719 6.02579 8.48446 6.41852 7.99999 6.41852ZM7.36842 8.29995C7.36842 7.93911 7.65118 7.64659 7.99999 7.64659C8.34881 7.64659 8.63157 7.93911 8.63157 8.29995V10.8529C8.63157 11.2137 8.34881 11.5062 7.99999 11.5062C7.65118 11.5062 7.36842 11.2137 7.36842 10.8529V8.29995Z" fill="#484D78"/>
</svg>
