<svg width="45" height="45" viewBox="0 0 45 45" fill="none" xmlns="http://www.w3.org/2000/svg">
<rect x="1.25" y="1.25" width="42.5" height="42.5" stroke="white" stroke-width="0.5"/>
<path d="M11.2621 11.4246L10.7386 11.5457L11.1429 11.8995L18.1599 18.0393C19.168 18.9213 19.8696 19.5341 20.4566 19.9731C21.0306 20.4023 21.4172 20.6043 21.7695 20.7085C22.5137 20.9286 23.3057 20.9286 24.0499 20.7085C24.4023 20.6043 24.7889 20.4023 25.3628 19.9731C25.9498 19.5341 26.6515 18.9213 27.6596 18.0393L34.6765 11.8995L35.0809 11.5457L34.5574 11.4246C34.3033 11.3658 33.9942 11.3203 33.6037 11.2884C32.7933 11.2222 31.7526 11.2212 30.2609 11.2212H15.5586C14.0669 11.2212 13.0261 11.2222 12.2157 11.2884C11.8252 11.3203 11.5162 11.3658 11.2621 11.4246ZM9.17685 13.6346L8.86096 13.3582L8.7337 13.7582C8.6384 14.0577 8.56867 14.4417 8.52474 14.9794C8.45853 15.7898 8.45752 16.8305 8.45752 18.3223V26.0235C8.45752 27.5152 8.45853 28.5559 8.52474 29.3663C8.5897 30.1614 8.71089 30.6196 8.88811 30.9675C9.26686 31.7108 9.87122 32.3152 10.6146 32.6939C10.9624 32.8711 11.4207 32.9923 12.2157 33.0573C13.0261 33.1235 14.0669 33.1245 15.5586 33.1245H30.2609C31.7526 33.1245 32.7933 33.1235 33.6037 33.0573C34.3988 32.9923 34.8571 32.8711 35.2049 32.6939C35.9482 32.3152 36.5526 31.7108 36.9313 30.9675C37.1086 30.6196 37.2298 30.1614 37.2947 29.3663C37.3609 28.5559 37.3619 27.5152 37.3619 26.0235V18.3223C37.3619 16.8305 37.3609 15.7898 37.2947 14.9794C37.2508 14.4417 37.1811 14.0577 37.0858 13.7582L36.9585 13.3582L36.6426 13.6346L29.372 19.9964L29.3261 20.0365C28.3691 20.8739 27.5949 21.5511 26.9202 22.0557C26.2216 22.5781 25.5528 22.9759 24.7874 23.2022C23.5618 23.5647 22.2576 23.5647 21.0321 23.2022C20.2667 22.9759 19.5978 22.5781 18.8993 22.0557C18.2246 21.5512 17.4504 20.874 16.4934 20.0366L16.3123 20.2435L16.4934 20.0366L16.4474 19.9964L9.17685 13.6346ZM15.4926 8.6207H15.5586H30.2609H30.3269H30.3269C31.7453 8.62069 32.8891 8.62088 33.8155 8.69656C34.7714 8.77466 35.61 8.9396 36.3855 9.33473C37.6181 9.9628 38.6203 10.965 39.2484 12.1976C39.6435 12.9731 39.8085 13.8117 39.8866 14.7676C39.9622 15.694 39.9624 16.8378 39.9624 18.2563V18.3223V26.0235V26.0894C39.9624 27.5079 39.9622 28.6517 39.8866 29.5781C39.8085 30.534 39.6435 31.3726 39.2484 32.1481C38.6203 33.3807 37.6181 34.3829 36.3855 35.011C35.61 35.4061 34.7714 35.571 33.8155 35.6491C32.8891 35.7248 31.7453 35.725 30.3269 35.725H30.2609H15.5586H15.4926C14.0742 35.725 12.9303 35.7248 12.004 35.6491C11.048 35.571 10.2095 35.4061 9.43397 35.011C8.20131 34.3829 7.19913 33.3807 6.57106 32.1481C6.17592 31.3726 6.01099 30.534 5.93289 29.5781C5.8572 28.6517 5.85701 27.5079 5.85703 26.0895V26.0894V26.0235V18.3223V18.2563V18.2562C5.85701 16.8378 5.8572 15.694 5.93289 14.7676C6.01099 13.8117 6.17593 12.9731 6.57106 12.1976C7.19913 10.965 8.20131 9.9628 9.43397 9.33473C10.2095 8.9396 11.048 8.77466 12.004 8.69656C12.9303 8.62088 14.0741 8.62069 15.4925 8.6207H15.4926Z" fill="#1A1C2B" stroke="white" stroke-width="0.55"/>
<rect x="24" y="3" width="20" height="17" rx="8.5" fill="white"/>
<path fill-rule="evenodd" clip-rule="evenodd" d="M28.2727 11C28.2727 7.83691 30.8369 5.27273 34 5.27273C37.1631 5.27273 39.7273 7.83691 39.7273 11C39.7273 14.1631 37.1631 16.7273 34 16.7273C30.8369 16.7273 28.2727 14.1631 28.2727 11ZM34 4C30.134 4 27 7.13401 27 11C27 14.866 30.134 18 34 18C37.866 18 41 14.866 41 11C41 7.13401 37.866 4 34 4ZM34.6364 8.10101C34.6364 7.74956 34.3514 7.46465 34 7.46465C33.6485 7.46465 33.3636 7.74956 33.3636 8.10101V11.7778C33.3636 12.1293 33.6485 12.4142 34 12.4142C34.3514 12.4142 34.6364 12.1293 34.6364 11.7778V8.10101ZM34.7071 13.8283C34.7071 14.2188 34.3905 14.5354 34 14.5354C33.6095 14.5354 33.2929 14.2188 33.2929 13.8283C33.2929 13.4378 33.6095 13.1212 34 13.1212C34.3905 13.1212 34.7071 13.4378 34.7071 13.8283Z" fill="#1A1C2B" stroke="#1A1C2B" stroke-width="0.457143"/>
</svg>
