<svg width="22" height="22" viewBox="0 0 22 22" fill="none" xmlns="http://www.w3.org/2000/svg">
<circle cx="11" cy="11" r="11" fill="white"/>
<path fill-rule="evenodd" clip-rule="evenodd" d="M9.49093 6.17733L11.6764 6.17733C11.9834 6.17733 12.2323 6.4262 12.2323 6.7332C12.2323 7.0402 11.9834 7.28908 11.6764 7.28908H9.51465C8.90013 7.28908 8.47268 7.28951 8.14009 7.31668C7.81399 7.34333 7.62835 7.39288 7.48856 7.46411C7.1864 7.61806 6.94074 7.86373 6.78678 8.16589C6.71555 8.30568 6.666 8.49132 6.63935 8.81742C6.61218 9.15001 6.61175 9.57746 6.61175 10.192V12.539C6.61175 13.1535 6.61218 13.581 6.63935 13.9136C6.666 14.2397 6.71555 14.4253 6.78678 14.5651C6.94074 14.8672 7.1864 15.1129 7.48856 15.2669C7.62835 15.3381 7.81399 15.3877 8.14009 15.4143C8.47268 15.4415 8.90013 15.4419 9.51465 15.4419H11.8617C12.4762 15.4419 12.9036 15.4415 13.2362 15.4143C13.5623 15.3877 13.748 15.3381 13.8878 15.2669C14.1899 15.1129 14.4356 14.8672 14.5895 14.5651C14.6608 14.4253 14.7103 14.2397 14.737 13.9136C14.7641 13.581 14.7646 13.1535 14.7646 12.539V10.3773C14.7646 10.0703 15.0134 9.82139 15.3204 9.82139C15.6274 9.82139 15.8763 10.0703 15.8763 10.3773V12.5627C15.8763 13.1479 15.8763 13.6209 15.845 14.0041C15.8128 14.3989 15.7445 14.7472 15.5801 15.0698C15.3196 15.5812 14.9038 15.9969 14.3925 16.2574C14.0698 16.4218 13.7216 16.4901 13.3268 16.5224C12.9436 16.5537 12.4706 16.5537 11.8854 16.5536H9.49093C8.90571 16.5537 8.43276 16.5537 8.04956 16.5224C7.65471 16.4901 7.30647 16.4218 6.98384 16.2574C6.47249 15.9969 6.05675 15.5812 5.7962 15.0698C5.63181 14.7472 5.56356 14.3989 5.5313 14.0041C5.49999 13.6209 5.49999 13.1479 5.5 12.5627V10.1683C5.49999 9.58304 5.49999 9.11008 5.5313 8.72689C5.56356 8.33204 5.63181 7.9838 5.7962 7.66117C6.05675 7.14982 6.47249 6.73408 6.98384 6.47353C7.30647 6.30914 7.65471 6.24089 8.04956 6.20863C8.43276 6.17732 8.90571 6.17732 9.49093 6.17733Z" fill="#868398"/>
<path fill-rule="evenodd" clip-rule="evenodd" d="M15.3974 5.69899C15.6628 5.43367 16.0929 5.43367 16.3583 5.69899C16.6236 5.96432 16.6236 6.39449 16.3583 6.65981L16.1399 6.87818C16.0434 6.97466 15.887 6.97466 15.7905 6.87818L15.1791 6.26675C15.0826 6.17027 15.0826 6.01384 15.1791 5.91736L15.3974 5.69899ZM15.0265 7.28921L14.7644 7.02717C14.4946 6.75734 14.3197 6.77307 14.0656 7.02717C13.0102 8.08262 11.9548 9.13806 10.8993 10.1935C9.69329 11.3995 8.93071 12.5923 9.19604 12.8576C9.46136 13.1229 10.6541 12.3603 11.8601 11.1543C12.9156 10.0989 13.971 9.0434 15.0265 7.98799C15.2963 7.71816 15.2806 7.54331 15.0265 7.28921Z" fill="#868398"/>
</svg>
