<svg width="45" height="45" viewBox="0 0 45 45" fill="none" xmlns="http://www.w3.org/2000/svg">
<g clip-path="url(#clip0_5_2052)">
<path d="M8.51721 28.2248C8.51721 30.5154 6.64909 32.3864 4.35815 32.3864C2.06752 32.3864 0.196899 30.5154 0.196899 28.2248C0.196899 25.9342 2.06784 24.0632 4.35846 24.0632H8.51752L8.51721 28.2248ZM10.6138 28.2248C10.6138 25.9342 12.4847 24.0632 14.7753 24.0632C17.066 24.0632 18.9369 25.9339 18.9369 28.2248V38.642C18.9369 40.9326 17.0663 42.8035 14.7753 42.8035C12.4847 42.8035 10.6138 40.9326 10.6138 38.642V28.2248Z" fill="#DE1C59"/>
<path d="M14.7753 11.5172C12.4847 11.5172 10.6138 9.64909 10.6138 7.35815C10.6138 5.06752 12.4847 3.1969 14.7753 3.1969C17.066 3.1969 18.9369 5.06784 18.9369 7.35846V11.5175L14.7753 11.5172ZM14.7753 13.6138C17.066 13.6138 18.9369 15.4847 18.9369 17.7753C18.9369 20.066 17.0663 21.9369 14.7753 21.9369H4.35815C2.06752 21.9369 0.196899 20.0663 0.196899 17.7753C0.196899 15.4847 2.06784 13.6138 4.35846 13.6138H14.7753Z" fill="#35C5F0"/>
<path d="M31.4829 17.7753C31.4829 15.4847 33.351 13.6138 35.642 13.6138C37.9326 13.6138 39.8035 15.4847 39.8035 17.7753C39.8035 20.066 37.9326 21.9369 35.642 21.9369H31.4829V17.7753ZM29.3864 17.7753C29.3864 20.066 27.5154 21.9369 25.2248 21.9369C22.9342 21.9369 21.0632 20.0663 21.0632 17.7753V7.35815C21.0632 5.06752 22.9339 3.1969 25.2248 3.1969C27.5154 3.1969 29.3864 5.06784 29.3864 7.35846V17.7753Z" fill="#2EB57D"/>
<path d="M25.2248 34.4829C27.5154 34.4829 29.3864 36.351 29.3864 38.642C29.3864 40.9326 27.5154 42.8035 25.2248 42.8035C22.9342 42.8035 21.0632 40.9326 21.0632 38.642V34.4829H25.2248ZM25.2248 32.3864C22.9342 32.3864 21.0632 30.5154 21.0632 28.2248C21.0632 25.9342 22.9339 24.0632 25.2248 24.0632H35.642C37.9326 24.0632 39.8035 25.9339 39.8035 28.2248C39.8035 30.5154 37.9326 32.3864 35.642 32.3864H25.2248Z" fill="#EBB02E"/>
</g>
<defs>
<clipPath id="clip0_5_2052">
<rect width="40" height="40" fill="white" transform="translate(0 3)"/>
</clipPath>
</defs>
</svg>
