<svg width="20" height="20" viewBox="0 0 20 20" fill="none" xmlns="http://www.w3.org/2000/svg">
<path d="M13.2167 3.65829V16.1583C13.2167 17.55 14.1667 18.3333 15.2083 18.3333C16.1583 18.3333 17.2 17.675 17.2 16.1583V3.74996C17.2 2.46663 16.25 1.66663 15.2083 1.66663C14.1667 1.66663 13.2167 2.54996 13.2167 3.65829ZM8.00834 9.99996V16.1583C8.00834 17.5583 8.975 18.3333 10 18.3333C10.95 18.3333 11.9917 17.675 11.9917 16.1583V10.0916C11.9917 8.80829 11.0417 8.00829 10 8.00829C8.95834 8.00829 8.00834 8.89163 8.00834 9.99996ZM4.79167 14.3583C5.89167 14.3583 6.78334 15.25 6.78334 16.3416C6.78334 16.8699 6.5735 17.3764 6.19999 17.7499C5.82648 18.1235 5.31989 18.3333 4.79167 18.3333C4.26345 18.3333 3.75686 18.1235 3.38335 17.7499C3.00984 17.3764 2.8 16.8699 2.8 16.3416C2.8 15.25 3.69167 14.3583 4.79167 14.3583Z" fill="#E13A92"/>
</svg>
