<svg width="54" height="52" viewBox="0 0 54 52" fill="none" xmlns="http://www.w3.org/2000/svg">
<mask id="path-1-outside-1_16_2790" maskUnits="userSpaceOnUse" x="0" y="0" width="54" height="52" fill="black">
<rect fill="white" width="54" height="52"/>
<path d="M36.6955 2.81495C36.87 2.41574 37.3357 2.23242 37.7292 2.41939C41.7814 4.34476 45.2456 7.32764 47.7526 11.0598C50.4064 15.0105 51.8774 19.6366 51.9927 24.3945C52.1079 29.1524 50.8627 33.8443 48.4033 37.9189C45.9439 41.9935 42.3726 45.2814 38.109 47.3962C33.8454 49.511 29.0668 50.3649 24.3346 49.8575C19.6025 49.3501 15.1135 47.5025 11.3952 44.5318C7.6769 41.5611 4.88384 37.5907 3.34424 33.0873C1.88981 28.8331 1.6111 24.2701 2.53013 19.8789C2.61937 19.4525 3.04712 19.1926 3.47052 19.2953C3.89392 19.3979 4.15256 19.8242 4.06422 20.2508C3.21541 24.3499 3.47983 28.6069 4.8371 32.577C6.27953 36.7961 8.89633 40.5159 12.38 43.2992C15.8636 46.0824 20.0693 47.8134 24.5028 48.2888C28.9363 48.7642 33.4134 47.9642 37.4079 45.9828C41.4025 44.0015 44.7484 40.9211 47.0526 37.1036C49.3568 33.2862 50.5234 28.8903 50.4154 24.4327C50.3074 19.9751 48.9293 15.6409 46.443 11.9395C44.1034 8.45671 40.8742 5.67033 37.0971 3.8658C36.7039 3.678 36.5211 3.21416 36.6955 2.81495Z"/>
</mask>
<path d="M36.6955 2.81495C36.87 2.41574 37.3357 2.23242 37.7292 2.41939C41.7814 4.34476 45.2456 7.32764 47.7526 11.0598C50.4064 15.0105 51.8774 19.6366 51.9927 24.3945C52.1079 29.1524 50.8627 33.8443 48.4033 37.9189C45.9439 41.9935 42.3726 45.2814 38.109 47.3962C33.8454 49.511 29.0668 50.3649 24.3346 49.8575C19.6025 49.3501 15.1135 47.5025 11.3952 44.5318C7.6769 41.5611 4.88384 37.5907 3.34424 33.0873C1.88981 28.8331 1.6111 24.2701 2.53013 19.8789C2.61937 19.4525 3.04712 19.1926 3.47052 19.2953C3.89392 19.3979 4.15256 19.8242 4.06422 20.2508C3.21541 24.3499 3.47983 28.6069 4.8371 32.577C6.27953 36.7961 8.89633 40.5159 12.38 43.2992C15.8636 46.0824 20.0693 47.8134 24.5028 48.2888C28.9363 48.7642 33.4134 47.9642 37.4079 45.9828C41.4025 44.0015 44.7484 40.9211 47.0526 37.1036C49.3568 33.2862 50.5234 28.8903 50.4154 24.4327C50.3074 19.9751 48.9293 15.6409 46.443 11.9395C44.1034 8.45671 40.8742 5.67033 37.0971 3.8658C36.7039 3.678 36.5211 3.21416 36.6955 2.81495Z" fill="url(#paint0_linear_16_2790)"/>
<path d="M36.6955 2.81495C36.87 2.41574 37.3357 2.23242 37.7292 2.41939C41.7814 4.34476 45.2456 7.32764 47.7526 11.0598C50.4064 15.0105 51.8774 19.6366 51.9927 24.3945C52.1079 29.1524 50.8627 33.8443 48.4033 37.9189C45.9439 41.9935 42.3726 45.2814 38.109 47.3962C33.8454 49.511 29.0668 50.3649 24.3346 49.8575C19.6025 49.3501 15.1135 47.5025 11.3952 44.5318C7.6769 41.5611 4.88384 37.5907 3.34424 33.0873C1.88981 28.8331 1.6111 24.2701 2.53013 19.8789C2.61937 19.4525 3.04712 19.1926 3.47052 19.2953C3.89392 19.3979 4.15256 19.8242 4.06422 20.2508C3.21541 24.3499 3.47983 28.6069 4.8371 32.577C6.27953 36.7961 8.89633 40.5159 12.38 43.2992C15.8636 46.0824 20.0693 47.8134 24.5028 48.2888C28.9363 48.7642 33.4134 47.9642 37.4079 45.9828C41.4025 44.0015 44.7484 40.9211 47.0526 37.1036C49.3568 33.2862 50.5234 28.8903 50.4154 24.4327C50.3074 19.9751 48.9293 15.6409 46.443 11.9395C44.1034 8.45671 40.8742 5.67033 37.0971 3.8658C36.7039 3.678 36.5211 3.21416 36.6955 2.81495Z" stroke="url(#paint1_linear_16_2790)" stroke-width="3" mask="url(#path-1-outside-1_16_2790)"/>
<defs>
<linearGradient id="paint0_linear_16_2790" x1="2" y1="0" x2="2" y2="50" gradientUnits="userSpaceOnUse">
<stop stop-color="#FD3E9D"/>
<stop offset="1" stop-color="#29244A"/>
</linearGradient>
<linearGradient id="paint1_linear_16_2790" x1="2" y1="0" x2="2" y2="50" gradientUnits="userSpaceOnUse">
<stop stop-color="#FD3E9D"/>
<stop offset="1" stop-color="#29244A"/>
</linearGradient>
</defs>
</svg>
