<svg width="24" height="24" viewBox="0 0 24 24" fill="none" xmlns="http://www.w3.org/2000/svg">
<circle cx="12" cy="12" r="12" fill="#E45D5F"/>
<path fill-rule="evenodd" clip-rule="evenodd" d="M15.255 10.5C15.351 10.5 15.4425 10.539 15.5077 10.6087C15.5737 10.6785 15.6082 10.7715 15.603 10.8667C15.5363 12.0788 15.3277 15.876 15.3277 15.876C15.3277 16.704 14.6422 17.256 13.8142 17.256H10.0882C9.261 17.256 8.5755 16.7415 8.5755 15.9135C8.5755 15.9135 8.32725 12.0915 8.2485 10.8705C8.24175 10.7745 8.27625 10.68 8.3415 10.6102C8.4075 10.5398 8.49975 10.5 8.59575 10.5C9.861 10.5 13.9957 10.5 15.255 10.5ZM7.52325 9.75C7.30425 9.75075 7.1265 9.5745 7.125 9.35625C7.12575 9.35325 7.12575 9.35025 7.12575 9.34725C7.12575 9.03675 7.314 8.7705 7.58175 8.65575C7.923 8.475 8.8425 8.3265 10.0508 8.24925V7.0575C10.0508 6.474 10.5247 6 11.1082 6H12.7463C13.3298 6 13.8038 6.474 13.8038 7.0575V8.24925C15.012 8.3265 15.9315 8.475 16.2727 8.65575C16.5405 8.7705 16.7288 9.03675 16.7288 9.34725C16.7288 9.57 16.5487 9.75 16.326 9.75C14.937 9.75 8.8995 9.75 7.52325 9.75ZM12.4515 7.19476H11.403C11.2785 7.19476 11.1773 7.29601 11.1773 7.42051V8.20126C11.421 8.19601 11.6715 8.19301 11.9273 8.19301C12.183 8.19301 12.4335 8.19601 12.6773 8.20126V7.42051C12.6773 7.29601 12.576 7.19476 12.4515 7.19476Z" fill="white"/>
</svg>
