<svg width="24" height="24" viewBox="0 0 24 24" fill="none" xmlns="http://www.w3.org/2000/svg">
<circle cx="12" cy="12" r="12" fill="#E7E8ED"/>
<path fill-rule="evenodd" clip-rule="evenodd" d="M7.48133 13.9869L12.4246 9.04367L14.9566 11.5757L11.2793 15.2529L10.0133 16.5189C10.0126 16.5197 9.72983 16.7814 9.18233 16.8842C8.40308 17.0319 7.83683 17.1384 7.29083 17.2419C7.13558 17.2712 6.97958 17.2209 6.87083 17.1294C6.77933 17.0207 6.72908 16.8647 6.75833 16.7094C6.86183 16.1634 6.96833 15.5972 7.11608 14.8179C7.21883 14.2712 7.47983 13.9892 7.48133 13.9869ZM8.23883 14.6739C8.24183 14.6702 8.24558 14.6664 8.24858 14.6634C8.36183 14.5502 8.54558 14.5502 8.65883 14.6634L9.33683 15.3414C9.45008 15.4547 9.45008 15.6377 9.33683 15.7509L9.29258 15.7952C9.29258 15.7952 9.17108 15.9077 8.93558 15.9519C8.60108 16.0157 8.35808 16.0614 8.12333 16.1057C8.05658 16.1184 7.98908 16.0967 7.94258 16.0577C7.90358 16.0112 7.88183 15.9437 7.89458 15.8769C7.93883 15.6422 7.98458 15.3992 8.04833 15.0647C8.09258 14.8292 8.20508 14.7077 8.20508 14.7077L8.23883 14.6739ZM15.5596 6.96994C15.2671 6.67669 14.7916 6.67669 14.4991 6.96994L13.5001 7.96819L16.0321 10.5002L17.0303 9.50119C17.3236 9.20869 17.3236 8.73319 17.0303 8.44069L15.5596 6.96994Z" fill="white"/>
</svg>
