<svg width="57" height="54" viewBox="0 0 57 54" fill="none" xmlns="http://www.w3.org/2000/svg">
<path d="M19.3395 0L19.5246 0.770753C20.7899 6.03889 21.4225 8.67295 22.7859 10.8017C23.9914 12.6841 25.6024 14.2732 27.5011 15.4529C29.6483 16.787 32.2907 17.3836 37.5757 18.5768L38.6791 18.8259L37.5757 19.075C32.2907 20.2681 29.6483 20.8647 27.5011 22.1988C25.6024 23.3785 23.9914 24.9677 22.7859 26.85C21.4225 28.9788 20.7899 31.6128 19.5246 36.881L19.3395 37.6517L19.1544 36.881C17.8891 31.6128 17.2565 28.9788 15.8932 26.85C14.6876 24.9677 13.0766 23.3785 11.178 22.1988C9.03078 20.8647 6.38832 20.2681 1.10339 19.075L0 18.8259L1.10339 18.5768C6.38832 17.3836 9.03078 16.787 11.178 15.4529C13.0766 14.2732 14.6876 12.6841 15.8932 10.8017C17.2565 8.67295 17.8891 6.03889 19.1544 0.770752L19.3395 0Z" fill="black"/>
<path d="M44.6717 29.7246C44.8497 30.4741 44.9387 30.8489 45.0377 31.1921C46.4793 36.1908 50.408 40.0856 55.4191 41.4838C55.7631 41.5798 56.1386 41.6655 56.8897 41.837L57.0007 41.8623L56.8897 41.8877C56.1386 42.0592 55.7631 42.1449 55.4191 42.2409C50.408 43.639 46.4793 47.5339 45.0377 52.5326C44.9387 52.8758 44.8497 53.2505 44.6717 54.0001C44.4937 53.2505 44.4047 52.8758 44.3058 52.5326C42.8642 47.5339 38.9354 43.639 33.9244 42.2409C33.5803 42.1449 33.2048 42.0592 32.4538 41.8877L32.3428 41.8623L32.4538 41.837C33.2048 41.6655 33.5803 41.5798 33.9244 41.4838C38.9354 40.0856 42.8642 36.1908 44.3058 31.1921C44.4047 30.8489 44.4937 30.4741 44.6717 29.7246Z" fill="black"/>
</svg>
