<svg width="48" height="48" viewBox="0 0 48 48" fill="none" xmlns="http://www.w3.org/2000/svg">
<g clip-path="url(#clip0_9_17532)">
<circle cx="13.0333" cy="8.64" r="4.57213" fill="#E13A92"/>
<path d="M14.5453 17.9915C12.4046 19.5082 9.43761 18.9867 7.94235 16.8309L6.66935 14.9955C6.3264 14.5011 6.32265 13.8467 6.65993 13.3483C7.26137 12.4597 8.62029 12.4893 9.34862 13.2773C10.1212 14.1132 11.1477 14.9399 12.2502 15.0475C15.6204 15.3763 19.6101 12.1921 19.3884 9.14411C19.3525 8.65079 19.3287 8.06356 19.3139 7.42815C19.2712 5.58549 21.7024 5.08307 22.466 6.76057L28.3609 19.7097C28.5995 20.2338 28.501 20.8497 28.1109 21.2732C27.4506 21.9902 26.2825 21.8524 25.8072 21.0014L23.8029 17.4131C22.5246 15.1246 19.5439 14.4502 17.405 15.9656L14.5453 17.9915Z" fill="#E13A92"/>
<circle cx="14.5395" cy="37.722" r="4.57213" transform="rotate(-120 14.5395 37.722)" fill="#E13A92"/>
<path d="M21.8822 31.7367C24.266 32.8323 25.2979 35.6626 24.1785 38.0354L23.2256 40.0555C22.9688 40.5997 22.404 40.9302 21.8038 40.8873C20.7334 40.8107 20.0796 39.6191 20.3979 38.5943C20.7356 37.5073 20.9382 36.2049 20.4801 35.1963C19.0798 32.1133 14.3274 30.2501 11.7986 31.9662C11.3893 32.244 10.8926 32.5582 10.3497 32.8887C8.77531 33.847 7.12462 31.9928 8.19556 30.4927L16.4624 18.913C16.7969 18.4444 17.3796 18.2217 17.9414 18.3477C18.8925 18.561 19.3572 19.6415 18.8579 20.4787L16.7525 24.0086C15.4097 26.2599 16.316 29.1785 18.6978 30.2732L21.8822 31.7367Z" fill="#E13A92"/>
<circle cx="38.7018" cy="21.5867" r="4.57213" transform="rotate(116.854 38.7018 21.5867)" fill="#E13A92"/>
<path d="M29.6756 18.7115C29.2895 16.1165 31.095 13.7051 33.6937 13.3448L35.9062 13.0382C36.5022 12.9555 37.0878 13.2478 37.38 13.7738C37.9012 14.7118 37.2609 15.9108 36.2289 16.2046C35.1341 16.5163 33.9329 17.0587 33.3389 17.9937C31.5232 20.852 32.5618 25.8498 35.3813 27.0288C35.8376 27.2196 36.3723 27.4636 36.9458 27.7375C38.6091 28.5317 37.9591 30.9277 36.1176 30.8512L21.902 30.2611C21.3267 30.2372 20.8217 29.8712 20.62 29.3319C20.2786 28.4189 20.9292 27.439 21.9031 27.3993L26.0099 27.2321C28.629 27.1254 30.5772 24.7707 30.1914 22.1779L29.6756 18.7115Z" fill="#E13A92"/>
</g>
<defs>
<clipPath id="clip0_9_17532">
<rect width="48" height="48" fill="white"/>
</clipPath>
</defs>
</svg>
