<svg width="48" height="48" viewBox="0 0 48 48" fill="none" xmlns="http://www.w3.org/2000/svg">
<g clip-path="url(#clip0_48_1048)">
<circle cx="13.0336" cy="8.63951" r="4.57213" fill="#E13A92"/>
<path d="M14.5456 17.9914C12.4048 19.5081 9.43785 18.9865 7.94259 16.8308L6.6696 14.9954C6.32664 14.501 6.3229 13.8466 6.66017 13.3482C7.26161 12.4595 8.62053 12.4892 9.34886 13.2772C10.1214 14.1131 11.148 14.9398 12.2505 15.0474C15.6207 15.3762 19.6104 12.192 19.3886 9.14399C19.3527 8.65067 19.3289 8.06343 19.3142 7.42802C19.2715 5.58537 21.7026 5.08295 22.4663 6.76045L28.3612 19.7096C28.5997 20.2336 28.5012 20.8496 28.1112 21.2731C27.4509 21.9901 26.2828 21.8523 25.8075 21.0013L23.8032 17.413C22.5249 15.1245 19.5441 14.4501 17.4052 15.9654L14.5456 17.9914Z" fill="#E13A92"/>
<circle cx="14.5396" cy="37.7221" r="4.57213" transform="rotate(-120 14.5396 37.7221)" fill="#E13A92"/>
<path d="M21.8823 31.7362C24.2662 32.8318 25.298 35.6621 24.1787 38.0349L23.2257 40.055C22.969 40.5992 22.4041 40.9297 21.8039 40.8868C20.7336 40.8103 20.0797 39.6186 20.398 38.5938C20.7357 37.5068 20.9383 36.2044 20.4802 35.1959C19.0799 32.1128 14.3275 30.2497 11.7987 31.9657C11.3894 32.2435 10.8928 32.5577 10.3499 32.8882C8.77543 33.8465 7.12475 31.9923 8.19568 30.4922L16.4625 18.9125C16.7971 18.4439 17.3797 18.2212 17.9415 18.3472C18.8926 18.5605 19.3573 19.6411 18.858 20.4782L16.7526 24.0081C15.4098 26.2594 16.3161 29.178 18.698 30.2727L21.8823 31.7362Z" fill="#E13A92"/>
<circle cx="38.7019" cy="21.5861" r="4.57213" transform="rotate(116.854 38.7019 21.5861)" fill="#E13A92"/>
<path d="M29.6757 18.7108C29.2896 16.1158 31.0951 13.7043 33.6939 13.3441L35.9063 13.0374C36.5024 12.9548 37.0879 13.2471 37.3802 13.7731C37.9013 14.7111 37.2611 15.9101 36.229 16.2039C35.1342 16.5156 33.933 17.058 33.339 17.993C31.5233 20.8513 32.5619 25.8491 35.3814 27.028C35.8378 27.2188 36.3724 27.4629 36.946 27.7368C38.6092 28.531 37.9593 30.9269 36.1177 30.8505L21.9021 30.2604C21.3269 30.2365 20.8218 29.8704 20.6202 29.3311C20.2788 28.4182 20.9294 27.4383 21.9033 27.3986L26.01 27.2313C28.6292 27.1246 30.5773 24.77 30.1915 22.1772L29.6757 18.7108Z" fill="#E13A92"/>
</g>
<defs>
<clipPath id="clip0_48_1048">
<rect width="48" height="48" fill="white"/>
</clipPath>
</defs>
</svg>
