<svg width="185" height="185" viewBox="0 0 185 185" fill="none" xmlns="http://www.w3.org/2000/svg">
<g clip-path="url(#clip0_50_1395)">
<circle cx="50.2325" cy="33.3" r="17.6217" fill="white"/>
<path d="M56.0604 69.3435C47.8095 75.1891 36.3743 73.1791 30.6113 64.8703L25.705 57.7966C24.3832 55.8909 24.3688 53.3687 25.6687 51.448C27.9867 48.0228 33.2242 48.137 36.0313 51.1743C39.0089 54.396 42.9654 57.5822 47.2146 57.9968C60.204 59.2641 75.581 46.9918 74.7262 35.2442C74.5878 33.3429 74.4962 31.0796 74.4394 28.6306C74.2747 21.5287 83.6447 19.5923 86.588 26.0577L109.308 75.9658C110.227 77.9855 109.848 80.3595 108.344 81.9918C105.8 84.7552 101.298 84.224 99.4656 80.9443L91.7407 67.1143C86.8139 58.294 75.3256 55.6947 67.0818 61.5352L56.0604 69.3435Z" fill="white"/>
<circle cx="56.0376" cy="145.388" r="17.6217" transform="rotate(-120 56.0376 145.388)" fill="white"/>
<path d="M84.3375 122.319C93.5253 126.541 97.5022 137.449 93.1881 146.595L89.5152 154.381C88.5257 156.478 86.3487 157.752 84.0353 157.586C79.9101 157.291 77.3902 152.698 78.617 148.749C79.9183 144.559 80.6994 139.54 78.9338 135.653C73.5366 123.77 55.22 116.589 45.4737 123.203C43.8963 124.274 41.982 125.485 39.8895 126.758C33.8215 130.452 27.4595 123.305 31.587 117.524L63.4488 72.8937C64.7382 71.0876 66.9839 70.2293 69.1492 70.7151C72.8148 71.5373 74.6058 75.7018 72.6815 78.9282L64.5668 92.5331C59.3915 101.21 62.8846 112.459 72.0645 116.678L84.3375 122.319Z" fill="white"/>
<circle cx="149.163" cy="83.198" r="17.6217" transform="rotate(116.854 149.163 83.198)" fill="white"/>
<path d="M114.375 72.1159C112.887 62.1142 119.845 52.8201 129.861 51.4318L138.388 50.2498C140.686 49.9314 142.942 51.0578 144.069 53.0852C146.077 56.7004 143.61 61.3215 139.632 62.454C135.413 63.6552 130.783 65.7458 128.494 69.3495C121.496 80.3656 125.498 99.628 136.365 104.172C138.124 104.907 140.185 105.848 142.395 106.904C148.806 109.965 146.301 119.199 139.203 118.904L84.414 116.63C82.1968 116.538 80.2503 115.127 79.473 113.048C78.1572 109.53 80.6647 105.753 84.4183 105.6L100.246 104.956C110.341 104.544 117.849 95.469 116.363 85.4759L114.375 72.1159Z" fill="white"/>
</g>
<defs>
<clipPath id="clip0_50_1395">
<rect width="185" height="185" fill="white"/>
</clipPath>
</defs>
</svg>
