<svg width="45" height="45" viewBox="0 0 45 45" fill="none" xmlns="http://www.w3.org/2000/svg">
<path d="M15.5777 32.1707C15.5768 32.1671 15.5759 32.1635 15.5749 32.1599L15.5749 32.1599L15.4133 32.2018V32.1333H12.2281C9.78988 32.1333 8.25294 31.3134 7.57136 29.8956C7.27029 29.2694 7.2 28.7644 7.2 28.0453C7.2 27.2315 7.36997 26.5793 7.75531 25.9076C8.14506 25.2281 8.75789 24.5235 9.6575 23.6111C9.88924 23.3764 9.99597 23.268 10.1094 23.1509C10.5516 22.6948 10.8619 22.3314 11.0625 22.0286C11.2622 21.7273 11.3667 21.4662 11.3667 21.2187V18.5526C11.3667 11.558 16.1082 6.2 22.6735 6.2C29.2367 6.2 33.9667 11.5549 33.9667 18.5526V21.2187C33.9667 21.4662 34.0711 21.7273 34.2708 22.0286C34.4714 22.3314 34.7818 22.6948 35.2239 23.1509C35.3374 23.268 35.4441 23.3764 35.6758 23.6111C36.5754 24.5235 37.1883 25.2281 37.578 25.9076C37.9634 26.5793 38.1333 27.2315 38.1333 28.0453C38.1333 28.7649 38.0503 29.3082 37.7097 29.9635C36.9964 31.3356 35.4723 32.1333 33.1053 32.1333H33.1052L29.9189 32.135L29.7657 32.1351L29.7259 32.2829C29.2094 34.1974 28.3399 35.6572 27.1598 36.6384C25.9813 37.6182 24.4776 38.1337 22.6667 38.1337C20.8365 38.1337 19.32 37.6072 18.1359 36.6068C16.9521 35.6068 16.0848 34.1198 15.5777 32.1707ZM27.0627 32.1365H26.7766H18.5567H18.2706L18.3689 32.4051C18.7581 33.4694 19.2955 34.2568 20.0144 34.7763C20.7341 35.2965 21.6158 35.5337 22.6667 35.5337C23.7175 35.5337 24.5992 35.2965 25.319 34.7763C26.0378 34.2568 26.5752 33.4694 26.9644 32.4051L27.0627 32.1365ZM11.5092 25.4363L11.509 25.4364C10.8857 26.0687 10.4613 26.5457 10.1928 26.9461C9.92145 27.3507 9.8 27.6906 9.8 28.0453C9.8 28.3702 9.8216 28.5756 9.91462 28.7691C10.0334 29.0162 10.2644 29.208 10.6336 29.3363C10.9984 29.4631 11.5124 29.5333 12.2281 29.5333H33.1053C33.7994 29.5333 34.3054 29.4624 34.6701 29.334C35.0389 29.2041 35.2746 29.0109 35.4028 28.7643C35.5079 28.562 35.5333 28.3513 35.5333 28.0453C35.5333 27.6906 35.4119 27.3507 35.1405 26.9461C34.872 26.5457 34.4477 26.0687 33.8243 25.4364L33.8242 25.4363C33.593 25.2022 33.4783 25.0857 33.3569 24.9605C31.9685 23.5279 31.3667 22.5587 31.3667 21.2187V18.5526C31.3667 12.9536 27.7488 8.8 22.6735 8.8C17.5952 8.8 13.9667 12.9571 13.9667 18.5526V21.2187C13.9667 22.5587 13.3649 23.5279 11.9764 24.9605C11.855 25.0857 11.7404 25.2022 11.5092 25.4363Z" fill="#1A1C2B" stroke="white" stroke-width="0.4"/>
</svg>
