<svg width="55" height="564" viewBox="0 0 55 564" fill="none" xmlns="http://www.w3.org/2000/svg">
<path d="M-0.5 559.036V3.3925C-0.398238 3.71297 -0.288554 4.05435 -0.170941 4.41541C0.702429 7.09663 2.01338 10.8645 3.76477 15.2149C7.26547 23.9104 12.5349 34.9559 19.6012 44.3016C25.576 52.2038 31.8675 57.2433 37.2995 61.5945C38.9524 62.9185 40.5257 64.1787 41.9862 65.4365C45.1256 68.1399 47.7463 70.8287 49.587 74.1213C51.4233 77.4059 52.5 81.3217 52.5 86.5C52.5 158.002 53 226.129 53.5 290.066C53.5333 294.326 53.5666 298.567 53.5998 302.789C54.0644 361.943 54.5 417.4 54.5 468.5C54.5 479.898 49.1026 486.963 42.0138 493.617C40.184 495.334 38.2353 497.028 36.2388 498.764C30.5227 503.732 24.4148 509.042 19.5851 516.221C10.3094 530.009 5.04081 541.923 2.0903 550.398C0.870333 553.902 0.0467207 556.818 -0.5 559.036Z" fill="url(#paint0_linear_2_726)" stroke="white"/>
<defs>
<linearGradient id="paint0_linear_2_726" x1="-1" y1="0" x2="-1" y2="564" gradientUnits="userSpaceOnUse">
<stop stop-color="#FD3E9D"/>
<stop offset="1" stop-color="#29244A"/>
</linearGradient>
</defs>
</svg>
