<svg width="24" height="24" viewBox="0 0 24 24" fill="none" xmlns="http://www.w3.org/2000/svg">
<path fill-rule="evenodd" clip-rule="evenodd" d="M15.1354 5.18017C15.3432 5.52459 15.7163 5.73584 16.1193 5.73584C16.8196 5.73584 17.9275 5.73584 18.6335 5.73584C19.0434 5.73584 19.4222 5.95512 19.6277 6.30987C19.9699 6.90342 20.5014 7.82302 20.8458 8.42116C21.0548 8.7828 21.0513 9.22939 20.8355 9.58644C20.5026 10.141 20.0032 10.971 19.6679 11.5278C19.4486 11.8929 19.4486 12.3475 19.6679 12.7126C20.0032 13.2694 20.5026 14.0995 20.8355 14.654C21.0513 15.011 21.0548 15.4576 20.8458 15.8193C20.5014 16.4174 19.9699 17.337 19.6277 17.9306C19.4222 18.2853 19.0434 18.5046 18.6335 18.5046C17.9275 18.5046 16.8196 18.5046 16.1193 18.5046C15.7163 18.5046 15.3432 18.7158 15.1354 19.0603C14.8506 19.5344 14.4431 20.2106 14.1584 20.6836C13.9506 21.0292 13.5774 21.2404 13.1745 21.2404C12.512 21.2404 11.488 21.2404 10.8255 21.2404C10.4226 21.2404 10.0494 21.0292 9.84164 20.6836C9.55692 20.2106 9.14936 19.5344 8.86464 19.0603C8.65684 18.7158 8.28372 18.5046 7.88075 18.5046C7.18043 18.5046 6.07255 18.5046 5.36649 18.5046C4.95663 18.5046 4.57777 18.2853 4.37226 17.9306C4.03014 17.337 3.49859 16.4174 3.15417 15.8193C2.94522 15.4576 2.94867 15.011 3.1645 14.654C3.49744 14.0995 3.99685 13.2694 4.33208 12.7126C4.55136 12.3475 4.55136 11.8929 4.33208 11.5278C3.99685 10.971 3.49744 10.141 3.1645 9.58644C2.94867 9.22939 2.94522 8.7828 3.15417 8.42116C3.49859 7.82302 4.03014 6.90342 4.37226 6.30987C4.57777 5.95512 4.95663 5.73584 5.36649 5.73584C6.07255 5.73584 7.18043 5.73584 7.88075 5.73584C8.28372 5.73584 8.65684 5.52459 8.86464 5.18017C9.14936 4.70602 9.55692 4.02981 9.84164 3.55681C10.0494 3.21124 10.4226 3 10.8255 3C11.488 3 12.512 3 13.1745 3C13.5774 3 13.9506 3.21124 14.1584 3.55681C14.4431 4.02981 14.8506 4.70602 15.1354 5.18017ZM12 8.67599C13.9012 8.67599 15.4442 10.219 15.4442 12.1202C15.4442 14.0214 13.9012 15.5644 12 15.5644C10.0988 15.5644 8.55582 14.0214 8.55582 12.1202C8.55582 10.219 10.0988 8.67599 12 8.67599Z" fill="#E13A92"/>
</svg>
